<svg width="485" height="32" viewBox="0 0 485 32" fill="none" xmlns="http://www.w3.org/2000/svg">
<path d="M6.96915 24V4.896H0.441148V1.6H17.6251V4.896H11.0651V24H6.96915ZM19.0009 24V8.128H22.6489L23.0329 11.104C23.6089 10.08 24.3876 9.26933 25.3689 8.672C26.3716 8.05333 27.5449 7.744 28.8889 7.744V12.064H27.7369C26.8409 12.064 26.0409 12.2027 25.3369 12.48C24.6329 12.7573 24.0782 13.2373 23.6729 13.92C23.2889 14.6027 23.0969 15.552 23.0969 16.768V24H19.0009ZM37.6404 24.384C35.6564 24.384 34.1204 23.7653 33.0324 22.528C31.9657 21.2907 31.4324 19.4773 31.4324 17.088V8.128H35.4964V16.704C35.4964 18.0693 35.7737 19.1147 36.3284 19.84C36.8831 20.5653 37.7577 20.928 38.9524 20.928C40.0831 20.928 41.0111 20.5227 41.7364 19.712C42.4831 18.9013 42.8564 17.7707 42.8564 16.32V8.128H46.9524V24H43.3364L43.0164 21.312C42.5257 22.2507 41.8111 22.9973 40.8724 23.552C39.9551 24.1067 38.8777 24.384 37.6404 24.384ZM57.7171 24.384C56.3091 24.384 55.0718 24.16 54.0051 23.712C52.9385 23.2427 52.0851 22.6027 51.4451 21.792C50.8051 20.9813 50.4211 20.0427 50.2931 18.976H54.4211C54.5491 19.5947 54.8905 20.128 55.4451 20.576C56.0211 21.0027 56.7571 21.216 57.6531 21.216C58.5491 21.216 59.1998 21.0347 59.6051 20.672C60.0318 20.3093 60.2451 19.8933 60.2451 19.424C60.2451 18.7413 59.9465 18.2827 59.3491 18.048C58.7518 17.792 57.9198 17.5467 56.8531 17.312C56.1705 17.1627 55.4771 16.9813 54.7731 16.768C54.0691 16.5547 53.4185 16.288 52.8211 15.968C52.2451 15.6267 51.7758 15.2 51.4131 14.688C51.0505 14.1547 50.8691 13.504 50.8691 12.736C50.8691 11.328 51.4238 10.144 52.5331 9.184C53.6638 8.224 55.2425 7.744 57.2691 7.744C59.1465 7.744 60.6398 8.18133 61.7491 9.056C62.8798 9.93067 63.5518 11.136 63.7651 12.672H59.8931C59.6585 11.4987 58.7731 10.912 57.2371 10.912C56.4691 10.912 55.8718 11.0613 55.4451 11.36C55.0398 11.6587 54.8371 12.032 54.8371 12.48C54.8371 12.9493 55.1465 13.3227 55.7651 13.6C56.3838 13.8773 57.2051 14.1333 58.2291 14.368C59.3385 14.624 60.3518 14.912 61.2691 15.232C62.2078 15.5307 62.9545 15.9893 63.5091 16.608C64.0638 17.2053 64.3411 18.0693 64.3411 19.2C64.3625 20.1813 64.1065 21.0667 63.5731 21.856C63.0398 22.6453 62.2718 23.264 61.2691 23.712C60.2665 24.16 59.0825 24.384 57.7171 24.384ZM74.5416 24C72.8776 24 71.5443 23.5947 70.5416 22.784C69.539 21.9733 69.0376 20.5333 69.0376 18.464V11.552H66.3176V8.128H69.0376L69.5176 3.872H73.1336V8.128H77.4216V11.552H73.1336V18.496C73.1336 19.264 73.2936 19.7973 73.6136 20.096C73.955 20.3733 74.531 20.512 75.3416 20.512H77.3256V24H74.5416ZM88.2441 24.384C86.6441 24.384 85.2255 24.0427 83.9881 23.36C82.7508 22.6773 81.7801 21.7173 81.0761 20.48C80.3721 19.2427 80.0201 17.8133 80.0201 16.192C80.0201 14.5493 80.3615 13.088 81.0441 11.808C81.7481 10.528 82.7081 9.536 83.9241 8.832C85.1615 8.10667 86.6121 7.744 88.2761 7.744C89.8335 7.744 91.2095 8.08533 92.4041 8.768C93.5988 9.45067 94.5268 10.3893 95.1881 11.584C95.8708 12.7573 96.2121 14.0693 96.2121 15.52C96.2121 15.7547 96.2015 16 96.1801 16.256C96.1801 16.512 96.1695 16.7787 96.1481 17.056H84.0841C84.1695 18.2933 84.5961 19.264 85.3641 19.968C86.1535 20.672 87.1028 21.024 88.2121 21.024C89.0441 21.024 89.7375 20.8427 90.2921 20.48C90.8681 20.096 91.2948 19.6053 91.5721 19.008H95.7321C95.4335 20.0107 94.9321 20.928 94.2281 21.76C93.5455 22.5707 92.6921 23.2107 91.6681 23.68C90.6655 24.1493 89.5241 24.384 88.2441 24.384ZM88.2761 11.072C87.2735 11.072 86.3881 11.36 85.6201 11.936C84.8521 12.4907 84.3615 13.344 84.1481 14.496H92.0521C91.9881 13.4507 91.6041 12.6187 90.9001 12C90.1961 11.3813 89.3215 11.072 88.2761 11.072ZM106.953 24.384C105.46 24.384 104.126 24.0213 102.953 23.296C101.78 22.5707 100.852 21.5787 100.169 20.32C99.4865 19.0613 99.1451 17.632 99.1451 16.032C99.1451 14.432 99.4865 13.0133 100.169 11.776C100.852 10.5173 101.78 9.536 102.953 8.832C104.126 8.10667 105.46 7.744 106.953 7.744C108.148 7.744 109.193 7.968 110.089 8.416C110.985 8.864 111.71 9.49333 112.265 10.304V0.959999H116.361V24H112.713L112.265 21.728C111.753 22.432 111.07 23.0507 110.217 23.584C109.385 24.1173 108.297 24.384 106.953 24.384ZM107.817 20.8C109.14 20.8 110.217 20.3627 111.049 19.488C111.902 18.592 112.329 17.4507 112.329 16.064C112.329 14.6773 111.902 13.5467 111.049 12.672C110.217 11.776 109.14 11.328 107.817 11.328C106.516 11.328 105.438 11.7653 104.585 12.64C103.732 13.5147 103.305 14.6453 103.305 16.032C103.305 17.4187 103.732 18.56 104.585 19.456C105.438 20.352 106.516 20.8 107.817 20.8ZM137.565 24.384C136.37 24.384 135.325 24.16 134.429 23.712C133.533 23.264 132.808 22.6347 132.253 21.824L131.805 24H128.157V0.959999H132.253V10.4C132.765 9.696 133.437 9.07733 134.269 8.544C135.122 8.01067 136.221 7.744 137.565 7.744C139.058 7.744 140.392 8.10667 141.565 8.832C142.738 9.55733 143.666 10.5493 144.349 11.808C145.032 13.0667 145.373 14.496 145.373 16.096C145.373 17.696 145.032 19.1253 144.349 20.384C143.666 21.6213 142.738 22.6027 141.565 23.328C140.392 24.032 139.058 24.384 137.565 24.384ZM136.701 20.8C138.002 20.8 139.08 20.3627 139.933 19.488C140.786 18.6133 141.213 17.4827 141.213 16.096C141.213 14.7093 140.786 13.568 139.933 12.672C139.08 11.776 138.002 11.328 136.701 11.328C135.378 11.328 134.29 11.776 133.437 12.672C132.605 13.5467 132.189 14.6773 132.189 16.064C132.189 17.4507 132.605 18.592 133.437 19.488C134.29 20.3627 135.378 20.8 136.701 20.8ZM149.579 31.04L153.259 22.944H152.299L146.123 8.128H150.571L155.019 19.296L159.659 8.128H164.011L153.931 31.04H149.579ZM173.865 24V21.024C175.231 19.8933 176.553 18.7733 177.833 17.664C179.135 16.5547 180.287 15.456 181.289 14.368C182.313 13.28 183.124 12.224 183.721 11.2C184.34 10.1547 184.649 9.14133 184.649 8.16C184.649 7.24267 184.393 6.432 183.881 5.728C183.391 5.024 182.569 4.672 181.417 4.672C180.244 4.672 179.359 5.056 178.761 5.824C178.164 6.592 177.865 7.52 177.865 8.608H173.897C173.94 6.96533 174.303 5.6 174.985 4.512C175.668 3.40267 176.575 2.58133 177.705 2.048C178.836 1.49333 180.105 1.216 181.513 1.216C183.796 1.216 185.567 1.84533 186.825 3.104C188.105 4.34133 188.745 5.952 188.745 7.936C188.745 9.17333 188.457 10.3787 187.881 11.552C187.327 12.7253 186.591 13.856 185.673 14.944C184.756 16.032 183.764 17.056 182.697 18.016C181.631 18.9547 180.596 19.8293 179.593 20.64H189.289V24H173.865ZM201.718 24.384C199.649 24.384 197.878 23.904 196.406 22.944C194.934 21.9627 193.793 20.608 192.982 18.88C192.193 17.1307 191.798 15.104 191.798 12.8C191.798 10.5173 192.193 8.50133 192.982 6.752C193.793 5.00267 194.934 3.648 196.406 2.688C197.878 1.70667 199.649 1.216 201.718 1.216C203.788 1.216 205.558 1.70667 207.03 2.688C208.502 3.648 209.633 5.00267 210.422 6.752C211.233 8.50133 211.638 10.5173 211.638 12.8C211.638 15.104 211.233 17.1307 210.422 18.88C209.633 20.608 208.502 21.9627 207.03 22.944C205.558 23.904 203.788 24.384 201.718 24.384ZM201.718 20.704C203.404 20.704 204.78 20 205.846 18.592C206.913 17.184 207.446 15.2533 207.446 12.8C207.446 10.3467 206.913 8.416 205.846 7.008C204.78 5.6 203.404 4.896 201.718 4.896C200.012 4.896 198.625 5.6 197.558 7.008C196.513 8.416 195.99 10.3467 195.99 12.8C195.99 15.2533 196.513 17.184 197.558 18.592C198.625 20 200.012 20.704 201.718 20.704ZM212.556 27.712L214.38 19.744H218.348L215.244 27.712H212.556ZM230.875 24.384C228.805 24.384 227.035 23.904 225.563 22.944C224.091 21.9627 222.949 20.608 222.139 18.88C221.349 17.1307 220.955 15.104 220.955 12.8C220.955 10.5173 221.349 8.50133 222.139 6.752C222.949 5.00267 224.091 3.648 225.563 2.688C227.035 1.70667 228.805 1.216 230.875 1.216C232.944 1.216 234.715 1.70667 236.187 2.688C237.659 3.648 238.789 5.00267 239.579 6.752C240.389 8.50133 240.795 10.5173 240.795 12.8C240.795 15.104 240.389 17.1307 239.579 18.88C238.789 20.608 237.659 21.9627 236.187 22.944C234.715 23.904 232.944 24.384 230.875 24.384ZM230.875 20.704C232.56 20.704 233.936 20 235.003 18.592C236.069 17.184 236.603 15.2533 236.603 12.8C236.603 10.3467 236.069 8.416 235.003 7.008C233.936 5.6 232.56 4.896 230.875 4.896C229.168 4.896 227.781 5.6 226.715 7.008C225.669 8.416 225.147 10.3467 225.147 12.8C225.147 15.2533 225.669 17.184 226.715 18.592C227.781 20 229.168 20.704 230.875 20.704ZM253.593 24.384C251.524 24.384 249.753 23.904 248.281 22.944C246.809 21.9627 245.668 20.608 244.857 18.88C244.068 17.1307 243.673 15.104 243.673 12.8C243.673 10.5173 244.068 8.50133 244.857 6.752C245.668 5.00267 246.809 3.648 248.281 2.688C249.753 1.70667 251.524 1.216 253.593 1.216C255.663 1.216 257.433 1.70667 258.905 2.688C260.377 3.648 261.508 5.00267 262.297 6.752C263.108 8.50133 263.513 10.5173 263.513 12.8C263.513 15.104 263.108 17.1307 262.297 18.88C261.508 20.608 260.377 21.9627 258.905 22.944C257.433 23.904 255.663 24.384 253.593 24.384ZM253.593 20.704C255.279 20.704 256.655 20 257.721 18.592C258.788 17.184 259.321 15.2533 259.321 12.8C259.321 10.3467 258.788 8.416 257.721 7.008C256.655 5.6 255.279 4.896 253.593 4.896C251.887 4.896 250.5 5.6 249.433 7.008C248.388 8.416 247.865 10.3467 247.865 12.8C247.865 15.2533 248.388 17.184 249.433 18.592C250.5 20 251.887 20.704 253.593 20.704ZM276.312 24.384C274.243 24.384 272.472 23.904 271 22.944C269.528 21.9627 268.387 20.608 267.576 18.88C266.787 17.1307 266.392 15.104 266.392 12.8C266.392 10.5173 266.787 8.50133 267.576 6.752C268.387 5.00267 269.528 3.648 271 2.688C272.472 1.70667 274.243 1.216 276.312 1.216C278.381 1.216 280.152 1.70667 281.624 2.688C283.096 3.648 284.227 5.00267 285.016 6.752C285.827 8.50133 286.232 10.5173 286.232 12.8C286.232 15.104 285.827 17.1307 285.016 18.88C284.227 20.608 283.096 21.9627 281.624 22.944C280.152 23.904 278.381 24.384 276.312 24.384ZM276.312 20.704C277.997 20.704 279.373 20 280.44 18.592C281.507 17.184 282.04 15.2533 282.04 12.8C282.04 10.3467 281.507 8.416 280.44 7.008C279.373 5.6 277.997 4.896 276.312 4.896C274.605 4.896 273.219 5.6 272.152 7.008C271.107 8.416 270.584 10.3467 270.584 12.8C270.584 15.2533 271.107 17.184 272.152 18.592C273.219 20 274.605 20.704 276.312 20.704ZM289.463 16.448V13.024H295.479V7.488H298.967V13.024H304.951V16.448H298.967V21.984H295.479V16.448H289.463ZM324.246 24.384C322.624 24.384 321.195 24.032 319.958 23.328C318.72 22.624 317.739 21.6427 317.014 20.384C316.31 19.1253 315.958 17.6853 315.958 16.064C315.958 14.4427 316.31 13.0027 317.014 11.744C317.739 10.4853 318.72 9.504 319.958 8.8C321.195 8.096 322.624 7.744 324.246 7.744C326.272 7.744 327.979 8.27733 329.366 9.344C330.752 10.3893 331.638 11.84 332.022 13.696H327.702C327.488 12.928 327.062 12.3307 326.422 11.904C325.803 11.456 325.067 11.232 324.214 11.232C323.083 11.232 322.123 11.6587 321.334 12.512C320.544 13.3653 320.15 14.5493 320.15 16.064C320.15 17.5787 320.544 18.7627 321.334 19.616C322.123 20.4693 323.083 20.896 324.214 20.896C325.067 20.896 325.803 20.6827 326.422 20.256C327.062 19.8293 327.488 19.2213 327.702 18.432H332.022C331.638 20.224 330.752 21.664 329.366 22.752C327.979 23.84 326.272 24.384 324.246 24.384ZM343.273 24.384C341.737 24.384 340.35 24.032 339.113 23.328C337.897 22.624 336.926 21.6533 336.201 20.416C335.497 19.1573 335.145 17.7067 335.145 16.064C335.145 14.4213 335.508 12.9813 336.233 11.744C336.958 10.4853 337.929 9.504 339.145 8.8C340.382 8.096 341.769 7.744 343.305 7.744C344.82 7.744 346.185 8.096 347.401 8.8C348.638 9.504 349.609 10.4853 350.313 11.744C351.038 12.9813 351.401 14.4213 351.401 16.064C351.401 17.7067 351.038 19.1573 350.313 20.416C349.609 21.6533 348.638 22.624 347.401 23.328C346.164 24.032 344.788 24.384 343.273 24.384ZM343.273 20.832C344.34 20.832 345.268 20.4373 346.057 19.648C346.846 18.8373 347.241 17.6427 347.241 16.064C347.241 14.4853 346.846 13.3013 346.057 12.512C345.268 11.7013 344.35 11.296 343.305 11.296C342.217 11.296 341.278 11.7013 340.489 12.512C339.721 13.3013 339.337 14.4853 339.337 16.064C339.337 17.6427 339.721 18.8373 340.489 19.648C341.278 20.4373 342.206 20.832 343.273 20.832ZM355.063 24V8.128H358.679L359.031 10.272C359.543 9.504 360.215 8.896 361.047 8.448C361.901 7.97867 362.882 7.744 363.991 7.744C366.445 7.744 368.183 8.69333 369.207 10.592C369.783 9.71733 370.551 9.024 371.511 8.512C372.493 8 373.559 7.744 374.711 7.744C376.781 7.744 378.37 8.36267 379.479 9.6C380.589 10.8373 381.143 12.6507 381.143 15.04V24H377.047V15.424C377.047 14.0587 376.781 13.0133 376.247 12.288C375.735 11.5627 374.935 11.2 373.847 11.2C372.738 11.2 371.842 11.6053 371.159 12.416C370.498 13.2267 370.167 14.3573 370.167 15.808V24H366.071V15.424C366.071 14.0587 365.805 13.0133 365.271 12.288C364.738 11.5627 363.917 11.2 362.807 11.2C361.719 11.2 360.834 11.6053 360.151 12.416C359.49 13.2267 359.159 14.3573 359.159 15.808V24H355.063ZM385.032 31.04V8.128H388.68L389.128 10.4C389.64 9.696 390.312 9.07733 391.144 8.544C391.997 8.01067 393.096 7.744 394.44 7.744C395.933 7.744 397.267 8.10667 398.44 8.832C399.613 9.55733 400.541 10.5493 401.224 11.808C401.907 13.0667 402.248 14.496 402.248 16.096C402.248 17.696 401.907 19.1253 401.224 20.384C400.541 21.6213 399.613 22.6027 398.44 23.328C397.267 24.032 395.933 24.384 394.44 24.384C393.245 24.384 392.2 24.16 391.304 23.712C390.408 23.264 389.683 22.6347 389.128 21.824V31.04H385.032ZM393.576 20.8C394.877 20.8 395.955 20.3627 396.808 19.488C397.661 18.6133 398.088 17.4827 398.088 16.096C398.088 14.7093 397.661 13.568 396.808 12.672C395.955 11.776 394.877 11.328 393.576 11.328C392.253 11.328 391.165 11.776 390.312 12.672C389.48 13.5467 389.064 14.6773 389.064 16.064C389.064 17.4507 389.48 18.592 390.312 19.488C391.165 20.3627 392.253 20.8 393.576 20.8ZM411.379 24.384C410.014 24.384 408.894 24.1707 408.019 23.744C407.144 23.296 406.494 22.7093 406.067 21.984C405.64 21.2587 405.427 20.4587 405.427 19.584C405.427 18.112 406.003 16.9173 407.155 16C408.307 15.0827 410.035 14.624 412.339 14.624H416.371V14.24C416.371 13.152 416.062 12.352 415.443 11.84C414.824 11.328 414.056 11.072 413.139 11.072C412.307 11.072 411.582 11.2747 410.963 11.68C410.344 12.064 409.96 12.64 409.811 13.408H405.811C405.918 12.256 406.302 11.2533 406.963 10.4C407.646 9.54667 408.52 8.896 409.587 8.448C410.654 7.97867 411.848 7.744 413.171 7.744C415.432 7.744 417.214 8.30933 418.515 9.44C419.816 10.5707 420.467 12.1707 420.467 14.24V24H416.979L416.595 21.44C416.126 22.2933 415.464 22.9973 414.611 23.552C413.779 24.1067 412.702 24.384 411.379 24.384ZM412.307 21.184C413.48 21.184 414.387 20.8 415.027 20.032C415.688 19.264 416.104 18.3147 416.275 17.184H412.787C411.699 17.184 410.92 17.3867 410.451 17.792C409.982 18.176 409.747 18.656 409.747 19.232C409.747 19.8507 409.982 20.3307 410.451 20.672C410.92 21.0133 411.539 21.184 412.307 21.184ZM424.376 24V8.128H427.992L428.312 10.816C428.803 9.87733 429.507 9.13067 430.424 8.576C431.363 8.02133 432.461 7.744 433.72 7.744C435.683 7.744 437.208 8.36267 438.296 9.6C439.384 10.8373 439.928 12.6507 439.928 15.04V24H435.832V15.424C435.832 14.0587 435.555 13.0133 435 12.288C434.445 11.5627 433.581 11.2 432.408 11.2C431.256 11.2 430.307 11.6053 429.56 12.416C428.835 13.2267 428.472 14.3573 428.472 15.808V24H424.376ZM446.053 5.664C445.306 5.664 444.687 5.44 444.197 4.992C443.727 4.544 443.493 3.97867 443.493 3.296C443.493 2.61333 443.727 2.05867 444.197 1.632C444.687 1.184 445.306 0.959999 446.053 0.959999C446.799 0.959999 447.407 1.184 447.877 1.632C448.367 2.05867 448.613 2.61333 448.613 3.296C448.613 3.97867 448.367 4.544 447.877 4.992C447.407 5.44 446.799 5.664 446.053 5.664ZM444.005 24V8.128H448.101V24H444.005ZM460.088 24.384C458.488 24.384 457.069 24.0427 455.832 23.36C454.595 22.6773 453.624 21.7173 452.92 20.48C452.216 19.2427 451.864 17.8133 451.864 16.192C451.864 14.5493 452.205 13.088 452.888 11.808C453.592 10.528 454.552 9.536 455.768 8.832C457.005 8.10667 458.456 7.744 460.12 7.744C461.677 7.744 463.053 8.08533 464.248 8.768C465.443 9.45067 466.371 10.3893 467.032 11.584C467.715 12.7573 468.056 14.0693 468.056 15.52C468.056 15.7547 468.045 16 468.024 16.256C468.024 16.512 468.013 16.7787 467.992 17.056H455.928C456.013 18.2933 456.44 19.264 457.208 19.968C457.997 20.672 458.947 21.024 460.056 21.024C460.888 21.024 461.581 20.8427 462.136 20.48C462.712 20.096 463.139 19.6053 463.416 19.008H467.576C467.277 20.0107 466.776 20.928 466.072 21.76C465.389 22.5707 464.536 23.2107 463.512 23.68C462.509 24.1493 461.368 24.384 460.088 24.384ZM460.12 11.072C459.117 11.072 458.232 11.36 457.464 11.936C456.696 12.4907 456.205 13.344 455.992 14.496H463.896C463.832 13.4507 463.448 12.6187 462.744 12C462.04 11.3813 461.165 11.072 460.12 11.072ZM478.061 24.384C476.653 24.384 475.416 24.16 474.349 23.712C473.282 23.2427 472.429 22.6027 471.789 21.792C471.149 20.9813 470.765 20.0427 470.637 18.976H474.765C474.893 19.5947 475.234 20.128 475.789 20.576C476.365 21.0027 477.101 21.216 477.997 21.216C478.893 21.216 479.544 21.0347 479.949 20.672C480.376 20.3093 480.589 19.8933 480.589 19.424C480.589 18.7413 480.29 18.2827 479.693 18.048C479.096 17.792 478.264 17.5467 477.197 17.312C476.514 17.1627 475.821 16.9813 475.117 16.768C474.413 16.5547 473.762 16.288 473.165 15.968C472.589 15.6267 472.12 15.2 471.757 14.688C471.394 14.1547 471.213 13.504 471.213 12.736C471.213 11.328 471.768 10.144 472.877 9.184C474.008 8.224 475.586 7.744 477.613 7.744C479.49 7.744 480.984 8.18133 482.093 9.056C483.224 9.93067 483.896 11.136 484.109 12.672H480.237C480.002 11.4987 479.117 10.912 477.581 10.912C476.813 10.912 476.216 11.0613 475.789 11.36C475.384 11.6587 475.181 12.032 475.181 12.48C475.181 12.9493 475.49 13.3227 476.109 13.6C476.728 13.8773 477.549 14.1333 478.573 14.368C479.682 14.624 480.696 14.912 481.613 15.232C482.552 15.5307 483.298 15.9893 483.853 16.608C484.408 17.2053 484.685 18.0693 484.685 19.2C484.706 20.1813 484.45 21.0667 483.917 21.856C483.384 22.6453 482.616 23.264 481.613 23.712C480.61 24.16 479.426 24.384 478.061 24.384Z" fill="#244D4D"/>
</svg>
